<?xml version="1.0" encoding="UTF-8" standalone="no"?>
<svg
   height="100"
   viewBox="0 0 415 100"
   width="415"
   version="1.1"
   id="svg7"
   sodipodi:docname="amd_logo_white.svg"
   inkscape:version="1.3-alpha (9cd57a788, 2023-05-01)"
   xmlns:inkscape="http://www.inkscape.org/namespaces/inkscape"
   xmlns:sodipodi="http://sodipodi.sourceforge.net/DTD/sodipodi-0.dtd"
   xmlns="http://www.w3.org/2000/svg"
   xmlns:svg="http://www.w3.org/2000/svg">
  <defs
     id="defs7" />
  <sodipodi:namedview
     id="namedview7"
     pagecolor="#505050"
     bordercolor="#eeeeee"
     borderopacity="1"
     inkscape:showpageshadow="0"
     inkscape:pageopacity="0"
     inkscape:pagecheckerboard="0"
     inkscape:deskcolor="#505050"
     inkscape:zoom="3.5879518"
     inkscape:cx="207.5"
     inkscape:cy="50.028543"
     inkscape:window-width="3840"
     inkscape:window-height="2080"
     inkscape:window-x="2869"
     inkscape:window-y="-11"
     inkscape:window-maximized="1"
     inkscape:current-layer="svg7" />
  <clipPath
     id="a">
    <path
       d="m92.668 340.276h231.094v55.129h-231.094z"
       id="path1" />
  </clipPath>
  <g
     fill="#231f20"
     transform="matrix(1.7825869 0 0 -1.7825869 -163.51717 706.13009)"
     id="g7"
     style="fill:#ffffff;fill-opacity:1">
    <path
       d="m0 0-19.235-47.762h12.577l3.593 9.474h21.342l3.919-9.474h12.845l-21.229 47.762zm7.088-11.399 7.702-18.565h-14.705z"
       transform="translate(111.9024 391.6971)"
       id="path2"
       style="fill:#ffffff;fill-opacity:1" />
    <path
       d="m0 0h10.374v-47.762h-11.896v29.859l-12.894-14.992h-1.831l-12.865 14.992v-29.859h-11.916v47.762h10.355l15.357-17.702z"
       transform="translate(193.4789 391.6972)"
       id="path3"
       style="fill:#ffffff;fill-opacity:1" />
    <g
       clip-path="url(#a)"
       id="g6"
       style="fill:#ffffff;fill-opacity:1">
      <path
         d="m0 0h7.778c11.984 0 15.537 8.151 15.537 15.116 0 8.209-4.396 15.135-15.709 15.135h-7.606zm9.167 38.997c17.433 0 26.401-10.834 26.401-23.939 0-13.726-8.68-23.823-27.743-23.823h-19.737v47.762z"
         transform="translate(224.8565 352.7003)"
         id="path4"
         style="fill:#ffffff;fill-opacity:1" />
      <path
         d="m0 0h-24.628l-15.019 15.011h54.658v-54.65l-15.011 15.002z"
         transform="translate(308.7506 380.3937)"
         id="path5"
         style="fill:#ffffff;fill-opacity:1" />
      <path
         d="m0 0v21.649l-15.481-15.47v-21.64h21.639l15.461 15.461z"
         transform="translate(284.1231 355.7367)"
         id="path6"
         style="fill:#ffffff;fill-opacity:1" />
    </g>
  </g>
</svg>
