<?xml version="1.0" encoding="UTF-8" standalone="no"?>
<svg
   xmlns:osb="http://www.openswatchbook.org/uri/2009/osb"
   xmlns:dc="http://purl.org/dc/elements/1.1/"
   xmlns:cc="http://creativecommons.org/ns#"
   xmlns:rdf="http://www.w3.org/1999/02/22-rdf-syntax-ns#"
   xmlns:svg="http://www.w3.org/2000/svg"
   xmlns="http://www.w3.org/2000/svg"
   xmlns:xlink="http://www.w3.org/1999/xlink"
   id="svg5604"
   version="1.1"
   viewBox="0 0 5.8208332 5.9531251"
   height="22.5"
   width="22">
  <defs
     id="defs5598">
    <linearGradient
       osb:paint="solid"
       id="linearGradient6175">
      <stop
         id="stop6173"
         offset="0"
         style="stop-color:#ffffff;stop-opacity:1;" />
    </linearGradient>
    <linearGradient
       gradientTransform="translate(0,-2.5135417)"
       gradientUnits="userSpaceOnUse"
       y2="4.2675834"
       x2="4.7837601"
       y1="4.2675834"
       x1="3.7325141"
       id="linearGradient6177"
       xlink:href="#linearGradient6175" />
  </defs>
  <metadata
     id="metadata5601">
    <rdf:RDF>
      <cc:Work
         rdf:about="">
        <dc:format>image/svg+xml</dc:format>
        <dc:type
           rdf:resource="http://purl.org/dc/dcmitype/StillImage" />
        <dc:title></dc:title>
      </cc:Work>
    </rdf:RDF>
  </metadata>
  <g
     transform="translate(0,-291.04686)"
     id="layer1" />
  <rect
     y="3.8624401"
     x="4.7837601"
     height="5.267334e-007"
     width="0"
     id="rect6171"
     style="opacity:1;fill:url(#linearGradient6177);fill-opacity:1;fill-rule:evenodd;stroke-width:0.26458332" />
  <g
     style="fill:#b3b3b3"
     transform="matrix(-0.79577889,0,0,0.78850686,6.8433499,-0.84157274)"
     id="g4511">
    <g
       style="fill:#b3b3b3"
       id="g4505">
      <path
         d="M 7.1933565,4.2161952 A 2.9411273,2.9588449 0 0 1 4.2574782,7.1791804 2.9411273,2.9588449 0 0 1 1.3111117,4.2267506 2.9411273,2.9588449 0 0 1 4.2447342,1.261505 2.9411273,2.9588449 0 0 1 7.1933467,4.2116646 l -2.9411146,0.00868 z"
         id="path6227"
         style="fill:#b3b3b3;fill-opacity:1;fill-rule:evenodd;stroke-width:0.26458332" />
    </g>
  </g>
  <rect
     transform="matrix(0.70316972,-0.71102205,-0.70316972,-0.71102205,0,0)"
     y="-4.6033463"
     x="-3.7692842"
     height="0.83406144"
     width="2.2415407"
     id="rect3755"
     style="opacity:1;fill:#b3b3b3;fill-opacity:1;stroke-width:0.33027148" />
  <path
     transform="scale(-1,1)"
     d="M -1.5091095,2.4834799 A 1.9504058,1.9442246 0 0 1 -3.4560412,4.4304161 1.9504058,1.9442246 0 0 1 -5.4099147,2.4904023 1.9504058,1.9442246 0 0 1 -3.4644834,0.54197633 1.9504058,1.9442246 0 0 1 -1.509116,2.4804939 l -1.9503974,0.0057 z"
     id="path3771"
     style="fill:#ffffff;fill-opacity:1;stroke-width:0.28826112" />
  <rect
     ry="0.037187345"
     y="1.1405213"
     x="2.0139973"
     height="2.7064164"
     width="2.8562021"
     id="rect823"
     style="opacity:1;fill:#cccccc;fill-opacity:1;stroke-width:0.1358209" />
</svg>
